<?xml version="1.0" encoding="UTF-8" standalone="no"?> <svg id="Layer_1" data-name="Layer 1" xmlns="http://www.w3.org/2000/svg" viewBox="0 0 128 128"><defs><style>.cls-1{fill:#3b4551;}</style></defs><title>a</title><path class="cls-1" d="M125.46114,7.71969a3.4249,3.4249,0,0,0-3.09468-.44686l-38.45,13.24353-38.47-15.46a3.41578,3.41578,0,0,0-2.38548-.06L3.41035,18.65555a3.41392,3.41392,0,0,0-2.30322,3.22807v95.61486a3.41259,3.41259,0,0,0,4.52641,3.22807L44.08135,107.483l38.47,15.46a3.40865,3.40865,0,0,0,1.27389.24677,3.4492,3.4492,0,0,0,1.14716-.19786l33.09882-11.80068,6.33608-1.78967a3.4163,3.4163,0,0,0,2.48552-3.28587V10.5009A3.42115,3.42115,0,0,0,125.46114,7.71969ZM47.81408,13.36826,80.7306,26.5965v88.25485L47.81408,101.62269ZM7.93676,24.318,40.98445,12.93488v88.39144L7.93676,112.70973Zm112.12647,79.2144-3.9595,1.11826c-.07337.02-.14451.04446-.21787.06892L87.56023,114.819V26.48465l32.503-11.195Z"/></svg>